<svg width="57" height="57" viewBox="0 0 57 57" fill="none" xmlns="http://www.w3.org/2000/svg">
<path fill-rule="evenodd" clip-rule="evenodd" d="M13.8971 3.5625C10.1945 3.5625 7.125 6.50419 7.125 10.2214V46.7786C7.125 50.4958 10.1945 53.4375 13.8971 53.4375H41.3216C45.0243 53.4375 48.0938 50.4958 48.0938 46.7786V17.5295L48.0534 17.4336C48.0062 17.216 47.9193 17.0132 47.8006 16.8332L47.5575 16.2556L35.0902 4.07126C34.7689 3.75654 34.329 3.5625 33.8437 3.5625H13.8971ZM32.0625 7.125H13.8971C12.0844 7.125 10.6875 8.54836 10.6875 10.2214V46.7786C10.6875 48.4516 12.0844 49.875 13.8971 49.875H41.3216C43.1343 49.875 44.5312 48.4516 44.5312 46.7786V19.5938H36.3341C33.9781 19.5938 32.0625 17.6781 32.0625 15.3221V7.125ZM42.231 16.0312L35.625 9.57522V15.3221C35.625 15.7106 35.9456 16.0312 36.3341 16.0312H42.231Z" fill="#29707A"/>
</svg>
