<svg width="16" height="16" viewBox="0 0 16 16" fill="none" xmlns="http://www.w3.org/2000/svg">
<path d="M9.03239 13.3223C9.13077 13.0643 9.4199 12.9349 9.67789 13.0332C9.93581 13.1316 10.0651 13.4198 9.96696 13.6777C9.66855 14.4602 8.89265 14.9999 8.00016 15C7.10651 15 6.33151 14.4569 6.03336 13.6787C5.93462 13.4209 6.06361 13.132 6.32145 13.0332C6.57924 12.9346 6.86819 13.0635 6.96696 13.3213C7.11395 13.7047 7.51238 14 8.00016 14C8.48881 13.9999 8.88558 13.7066 9.03239 13.3223ZM8.00016 1C8.84382 1.0001 9.49998 1.7048 9.50016 2.53516V3.27051C9.66414 3.3528 9.83597 3.4563 10.0275 3.58398C10.2571 3.73717 10.3192 4.04763 10.1662 4.27734C10.013 4.50706 9.70257 4.56908 9.47282 4.41602C9.11752 4.17915 8.91878 4.09016 8.74821 4.04785C8.56699 4.00295 8.38189 4 8.00016 4C6.72858 4.00023 5.50017 5.13107 5.50016 6.5V9.15625L4.03629 11.2666L4.03141 11.2725C3.99555 11.321 3.99075 11.3842 4.01578 11.4404C4.02777 11.4672 4.0432 11.4826 4.05387 11.4902C4.06209 11.4961 4.06989 11.4999 4.08414 11.5H11.9113C11.9251 11.4999 11.9341 11.4969 11.9435 11.4902C11.9554 11.4818 11.971 11.4643 11.9836 11.4365C12.0099 11.3782 12.0034 11.3183 11.9709 11.2744C11.806 11.0529 11.8519 10.7391 12.0734 10.5742C12.2949 10.4097 12.6078 10.4563 12.7726 10.6777C13.046 11.0452 13.0538 11.4969 12.8957 11.8477C12.7371 12.199 12.3856 12.4998 11.9113 12.5H4.08414C3.60997 12.4998 3.25896 12.2 3.10172 11.8467C2.94598 11.4967 2.95639 11.0504 3.22184 10.6855L4.50016 8.84375V6.5C4.50016 5.11686 5.35882 3.93333 6.50016 3.36328V2.53516C6.50034 1.70474 7.15641 1 8.00016 1ZM12.0002 4C13.6569 4.0001 15.0002 5.34471 15.0002 7C15.0002 8.65529 13.6569 9.9999 12.0002 10C10.3434 10 9.00016 8.65535 9.00016 7C9.00016 5.34465 10.3434 4 12.0002 4ZM8.00016 2C7.74127 2 7.50034 2.22389 7.50016 2.53516V3.03906C7.6651 3.01289 7.83228 3.00002 8.00016 3C8.01177 3 8.02378 3 8.03532 3C8.19622 2.99996 8.34972 3.00041 8.50016 3.00879V2.53516C8.49998 2.22396 8.25898 2.00011 8.00016 2Z" fill="#3D3C3C"/>
</svg>
